<?xml version="1.0" encoding="utf-8"?>
<!-- Generator: Adobe Illustrator 23.0.0, SVG Export Plug-In . SVG Version: 6.00 Build 0)  -->
<svg version="1.1" id="Layer_1" xmlns="http://www.w3.org/2000/svg" xmlns:xlink="http://www.w3.org/1999/xlink" x="0px" y="0px"
	 viewBox="0 0 651 153" style="enable-background:new 0 0 651 153;" xml:space="preserve">
<style type="text/css">
	.st0{fill:#FFFFFF;}
	.st1{fill:#30B22C;}
	.st2{fill-rule:evenodd;clip-rule:evenodd;fill:#30B22C;}
</style>
<g>
	<path class="st0" d="M488.47,87.2c-13.49,0.01-24.08,10.5-24.07,23.86c0,13.36,10.56,23.79,24.11,23.83
		c13.47,0.03,24.07-10.48,24.07-23.86C512.57,97.65,501.99,87.19,488.47,87.2z"/>
	<path class="st0" d="M0-126v406.88h651V-126H0z M529.44,83.84L529.44,83.84L529.44,83.84L529.44,83.84z M529.39,83.8
		c-0.06-0.05-0.12-0.09-0.18-0.13C529.27,83.71,529.33,83.75,529.39,83.8z M173.96,13.8c16.18,0.14,28.72,13.42,28.65,29.03
		c-0.08,16.13-13.39,28.98-29.01,28.74c-15.55,0.14-28.85-12.72-28.82-28.93C144.8,26.97,157.54,13.66,173.96,13.8z M105.33,71.62
		c-15.9,0.12-28.91-12.99-28.9-28.87c0.01-16.01,13.2-28.87,28.94-28.86c15.18,0.01,28.88,12.28,28.84,28.95
		C134.16,59.3,120.66,71.75,105.33,71.62z M175.76,141.11c-16.16,0.82-29.65-11.43-30.96-27.08c-0.09-1.06-0.12-2.11-0.1-3.14
		c0.24-15.49,12.21-27.81,26.98-29.06c17.78-1.5,29.46,11.88,31.5,23.07c-0.43,0-0.84,0-1.25,0c-5.5,0-11.01,0.07-16.51,0.1
		c-0.82,0.01-1.32-0.15-1.84-0.8c-2.86-3.56-6.63-5.08-11.11-4.36c-4.48,0.72-7.61,3.37-9.19,7.64c-0.48,1.28-0.71,2.6-0.72,3.89
		c-0.03,5.6,4.07,10.78,9.94,11.66c5.1,0.77,9.91-1.6,12.3-6.17c0.14-0.27,0.29-0.78,0.47-0.78c6.13,0,12.17,0,18.21,0
		C202.57,125.75,193.15,140.22,175.76,141.11z M212.06,83.54c13.58,0,27.09,0,40.6,0c0.04,0.16,0.08,0.49,0.11,0.95l0,0
		c-0.03-0.46-0.07-0.79-0.11-0.95c0.07,0.27,0.1,1.03,0.11,2.05v4.62c0,0.15,0,0.3,0,0.46c0,0.07,0,0.13,0,0.2c0,0.16,0,0.32,0,0.48
		c0,0.01,0,0.01,0,0.02c0,0.04,0,0.08,0,0.11c0,0.01,0,0.01,0,0.02l0,0l0,0c0,0.14,0,0.29,0,0.43c0,0.06,0,0.11,0,0.17v0.01l0,0
		c0,0.01,0,0.02,0,0.03v0.23l0,0c0,0,0,0,0,0.01l0,0c0,0.02,0,0.04,0,0.05c0,0.05,0,0.1,0,0.14v0.01c0,0.01,0,0.02,0,0.04
		c0,0.01,0,0.02,0,0.04c0,0.02,0,0.04,0,0.05l0,0l0,0c0,0.01,0,0.02,0,0.03s0,0.02,0,0.03s0,0.01,0,0.02c0,0.01,0,0.03,0,0.04l0,0
		l0,0l0,0c0,0.07,0,0.14,0,0.21v2.08c0,0.02,0,0.11,0,0.11h-0.04h-0.01l0,0l0,0h-0.01l0,0l0,0l0,0l0,0c0-0.01,0-0.03,0-0.05
		c0-0.02,0-0.04,0-0.05c-0.05,0-0.13,0.01-0.19,0.01l0,0l0,0c-0.01,0-0.02,0-0.02,0c0.01,0,0.02,0.05,0.03,0.05s0.02,0.04,0.02,0.04
		h0.01l0,0c0,0,0,0-0.01,0l0,0c-0.01,0-0.01,0-0.02,0c0,0,0,0-0.01,0c0,0-0.06-0.02-0.13-0.04c-0.11,0-0.23,0.01-0.34,0.01
		c-0.08,0.02-0.15,0.04-0.27,0.04c-0.01,0-0.02,0-0.02,0c-0.02,0-0.04-0.01-0.06-0.01c-0.03,0-0.06,0.01-0.1,0.01
		c-0.01,0-0.01,0-0.02,0c-0.33,0-0.66,0-0.99,0c-0.05,0-0.09,0-0.14,0c-0.04,0-0.08,0-0.12,0c-0.05,0-0.11,0-0.16,0l0,0
		c-0.01,0-0.01,0-0.02,0c-0.03,0-0.05,0-0.08,0h-0.01l0,0c-0.26,0-0.51,0.02-0.77,0.02c-0.02,0-0.04,0-0.06,0
		c-1.19,0.01-2.39-0.02-3.58-0.02c-1.2,0-2.4,0-3.6,0c-1.2,0-2.4,0-3.6,0c-1.2,0-2.4,0-3.6,0c-1.2,0-2.39,0-3.74,0
		c-0.07,3.05-0.02,6.1-0.03,9.66c6.67,0,13.05,0,19.66,0c0,4.07,0,7.63,0,11.7c-6.61,0-13.22,0-19.84,0c0,3.56,0,6.61,0,10.17
		c7.57,0,14.71,0,21.87,0v11.7c-13.54,0-27.1,0-40.65,0C211.89,137.45,211.81,85.57,212.06,83.54z M303.63,138.47
		c-13.73,0-26.96,0-40.69,0c0-18.31,0-36.46,0-54.57c0.6-0.14,6.34-0.23,11.43-0.23c3.19,0,6.13,0.03,7.39,0.11v40.96h0.51
		c3.39,0,6.78,0,10.17,0c3.73,0,7.46,0,11.19,0C303.63,129.31,303.63,133.89,303.63,138.47z M309.73,84.05c6.04,0,12.43,0,18.82,0
		v40.69h0.22c3.53,0,6.97,0,10.46,0c3.62,0,7.3,0,11.19,0c0,4.58,0,9.15,0,13.73c-13.73,0-27.46,0-40.69,0
		C309.73,120.16,309.73,101.85,309.73,84.05z M386.06,87.56c-2.29,0.03-4.57,0.05-6.86,0.05c-2.24,0-4.48,0-6.88,0h-0.04v3.13
		c0,0.75,0,1.49,0,2.23v6.51c0,1.68,0,3.37,0,5.07c0,2.83,0,5.66,0,8.48s0,5.66,0,8.48c0,2.83,0,5.66,0,8.49c0,2.82,0,5.42,0,8.47
		c-1.53,0-3.11,0-4.78,0c-0.01-4.07,0.1-8.47,0.1-12.71c0-4.22,0.1-8.42,0.1-12.64c0-4.26,0-8.52,0-12.79c0-4.22,0-8.65,0-12.72
		c-7.12,0-13.73,0-20.85,0c0-1.53,0-2.54,0-4.07c15.22,0,30.5,0,45.77,0v3.91C390.41,87.65,388.24,87.54,386.06,87.56z
		 M441.64,138.53c-0.88,0-1.73,0-2.56,0s-1.64,0-2.45,0.01c-0.6,0.01-0.77-0.43-1.02-0.81c-1.51-2.36-3.01-4.72-4.52-7.08
		c-0.06-0.1-0.13-0.2-0.19-0.3c0.06,0.1,0.13,0.2,0.19,0.3c-0.31-0.48-0.62-0.96-0.92-1.44c-1.99-3.1-3.95-6.21-6.01-9.26
		c-0.22-0.32-0.44-0.64-0.67-0.95c-0.07-0.09-0.13-0.18-0.2-0.27c-0.19-0.25-0.39-0.51-0.59-0.76c-0.05-0.06-0.1-0.12-0.15-0.18
		c-0.01-0.01-0.01-0.01-0.02-0.02c-0.52-0.65-1.07-1.29-1.61-1.92c-1.91-2.19-4.38-3.31-7.29-3.31l0,0c-0.02,0-0.05,0-0.07,0
		c-1.27,0-2.55-0.04-3.83-0.04c-1.55-0.01-3.1-0.02-4.62-0.03c-0.19,0-0.26,0.04-0.77,0.07c0,8.64,0,17.29,0,25.93
		c-1.53,0-3.05,0-4.58,0c0-18.31,0-36.62,0-54.93c0.51,0,0.84,0,1.22,0c4.49,0,8.99,0,13.48,0c2.81,0,5.57,0.29,8.24,1.17
		c0.04,0.01,0.07,0.03,0.11,0.04c0.26,0.09,0.52,0.18,0.78,0.28c0.03,0.01,0.06,0.02,0.09,0.04c0.03,0.01,0.05,0.02,0.08,0.03
		c0.01,0,0.02,0.01,0.03,0.01c0.24,0.09,0.47,0.19,0.69,0.29c0.02,0.01,0.05,0.02,0.07,0.03l0,0l0,0c0.02,0.01,0.04,0.01,0.05,0.02
		c0.01,0,0.02,0.01,0.02,0.01c0.05,0.02,0.1,0.05,0.15,0.08c0.29,0.14,0.58,0.28,0.86,0.43c0.01,0,0.01,0.01,0.02,0.01l0,0
		c0.02,0.01,0.04,0.03,0.07,0.04c0.02,0.01,0.05,0.03,0.07,0.04c0.3,0.17,0.59,0.34,0.87,0.53c0.06,0.04,0.11,0.08,0.17,0.11
		c0.23,0.16,0.46,0.33,0.68,0.5c0.03,0.02,0.06,0.05,0.08,0.07c0.01,0.01,0.02,0.02,0.03,0.02c0.04,0.03,0.09,0.07,0.13,0.1
		c0.02,0.01,0.04,0.03,0.05,0.04c0.22,0.18,0.43,0.37,0.63,0.57c0.04,0.04,0.08,0.08,0.12,0.12s0.09,0.09,0.13,0.13
		c0.03,0.03,0.05,0.05,0.08,0.08c0.12,0.13,0.25,0.26,0.37,0.4c0.06,0.06,0.11,0.13,0.17,0.19c0.06,0.07,0.12,0.14,0.17,0.22
		c0.05,0.06,0.09,0.12,0.14,0.18c0.1,0.13,0.2,0.26,0.3,0.4c0.1,0.15,0.21,0.3,0.31,0.45c0.14,0.23,0.28,0.46,0.41,0.7
		c0.07,0.13,0.13,0.26,0.2,0.39c0.01,0.02,0.02,0.03,0.03,0.05c0.01,0.02,0.02,0.03,0.03,0.05c0.09,0.17,0.17,0.35,0.25,0.53
		c0.05,0.12,0.11,0.22,0.16,0.35c0.1,0.25,0.19,0.5,0.28,0.74c0.6,1.71,0.87,3.45,0.81,5.2c-0.04,1.21-0.21,2.42-0.54,3.64
		c-0.73,2.67-2.25,4.84-4.46,6.47c-1.21,0.89-2.52,1.57-3.82,2.33c-0.33,0.19-0.92,0.33-0.92,0.48c0,0.13-0.08,0.23-0.04,0.26
		c2.08,1.51,3.58,3.49,4.98,5.6c0.01,0.02,0.03,0.04,0.04,0.06c1.83,2.77,3.65,5.55,5.48,8.32c2.77,4.22,5.53,8.44,8.3,12.66
		C441.48,138.13,441.52,138.28,441.64,138.53L441.64,138.53z M448.82,138.6c-0.26,0-0.75-0.04-0.75-0.07c0-18.34,0-36.68,0-54.99
		c1.44,0,2.68,0,4.07,0v55.06C450.99,138.6,449.95,138.6,448.82,138.6z M495.43,138.57c-2.32,0.51-4.65,0.79-7.04,0.79
		c-9.75-0.21-17.89-3.81-23.74-11.76c-10.89-14.79-5.08-37.67,15.06-43.58c10.16-2.98,19.68-1.19,27.97,5.59
		c5.77,4.72,9.03,10.93,9.82,18.36C519.03,122.44,509.66,135.4,495.43,138.57z M574.71,138.53c-0.51,0-1.1,0.01-1.72,0.02
		c-0.62,0-1.26-0.01-1.87-0.05c-0.34-0.03-0.64-0.47-0.91-0.77c-2.7-3.09-5.38-6.19-8.07-9.29c-10.42-11.99-20.83-23.97-31.26-35.96
		c-0.22-0.26-0.44-0.5-0.67-0.74c-0.09,0.02-0.25,0.05-0.25,0.07c0,15.56,0,30.9,0,46.67c-1.51,0-3.1,0-4.58,0v-6.02l0,0v-0.72
		c0-0.01,0-0.03,0-0.05c0-0.15,0-0.3,0-0.46s0-0.33,0-0.5c0-0.01,0-0.02,0-0.02c0-0.02,0-0.04,0-0.06v-0.73c0-0.01,0-0.01,0-0.02
		v-2.26c0-0.01,0-0.02,0-0.04l0,0c0-0.01,0-0.02,0-0.03c0-0.04,0-0.09,0-0.14v-2.83c0,0,0,0,0-0.01V91.16c0-0.01,0-0.01,0-0.02
		c0-0.05,0-0.1,0-0.15l0,0l0,0v-0.01v-0.2c0-0.02,0-0.04,0-0.06c0,0,0,0,0-0.01l0,0l0,0c0-0.06,0-0.12,0-0.18c0-0.09,0-0.17,0-0.26
		c0-0.02,0-0.04,0-0.06c0-0.01,0-0.03,0-0.04v-0.92c0-0.01,0-0.02,0-0.03v-1.53c0-0.02,0-0.04,0-0.05s0-0.02,0-0.02V87.1
		c0-0.02,0-0.04,0-0.06v-0.75l0,0l0,0c0-0.06,0-0.11,0-0.17c0-0.01,0-0.02,0-0.03v-0.01l0,0l0,0l0,0c0-0.01,0-0.02,0-0.04
		c0-0.08,0-0.16,0-0.24l0,0v-0.82l0,0v-1.3l0,0v-0.01c0-0.01,0-0.01,0-0.02l0,0v-0.01v-0.01v-0.08c0.56,0,1.13,0,1.7,0l0,0h0.01
		c0.61,0,1.22-0.01,1.82,0.04c0.05,0,0.1,0.01,0.15,0.03c0.05,0.01,0.1,0.04,0.15,0.07c0.24,0.15,0.47,0.42,0.66,0.63
		c4,4.58,7.98,9.18,11.97,13.78c9.09,10.48,18.18,20.95,27.27,31.43c0.27,0.31,0.53,0.61,0.8,0.91c0.08-0.03,0.23-0.06,0.23-0.09
		c0-15.58,0-31.03,0-46.79c1.53,0,3.05,0,4.58,0C574.71,101.85,574.71,120.14,574.71,138.53z"/>
	<path class="st0" d="M426.09,102.84c2.8-5.14,0.69-11.4-4.64-13.79c-1.82-0.82-3.76-1.32-5.75-1.38c-3.52-0.11-7.09-0.1-10.61-0.13
		c-0.22,0-0.25,0.09-0.76,0.14c0,6.86,0,13.67,0,20.59c0.51,0.04,0.49,0.09,0.64,0.09c1.64,0,3.31,0.01,4.97,0.01
		c1.65,0,3.31-0.01,4.95-0.05c2.41-0.07,4.79-0.53,6.99-1.6c1.02-0.5,1.93-1.12,2.71-1.89
		C425.17,104.25,425.67,103.59,426.09,102.84z"/>
	<path class="st1" d="M173.6,71.57c15.62,0.23,28.93-12.61,29.01-28.74c0.07-15.61-12.47-28.89-28.65-29.03
		c-16.42-0.14-29.16,13.17-29.18,28.85C144.76,58.85,158.05,71.71,173.6,71.57z M173.77,25.84c9.49,0.03,16.83,7.62,16.81,16.91
		c-0.03,9.6-7.79,16.81-16.89,16.84c-9.26-0.01-16.92-7.6-16.88-16.86C156.85,33.51,164.1,25.81,173.77,25.84z"/>
	<path class="st1" d="M105.36,13.9c-15.73-0.01-28.92,12.85-28.94,28.86c-0.01,15.87,13.01,28.98,28.9,28.87
		c15.34,0.12,28.84-12.33,28.88-28.78C134.24,26.18,120.53,13.91,105.36,13.9z M105.27,67.46c-13.49,0-24.69-10.84-24.66-24.73
		c0.03-14.11,11.5-24.7,24.74-24.65c14.34,0.05,24.85,11.97,24.62,24.74C130.17,55.42,119.79,67.47,105.27,67.46z"/>
	<path class="st2" d="M134.05,110.72c0.19,15.4-12.38,28.9-28.82,28.94c-15.88,0.04-28.81-12.69-28.98-28.58
		c-0.17-16.61,13.38-29.24,28.9-29.24C121.09,81.86,134.18,94.9,134.05,110.72z"/>
</g>
</svg>
