<?xml version="1.0" encoding="utf-8"?>
<!-- Generator: Adobe Illustrator 16.0.0, SVG Export Plug-In . SVG Version: 6.00 Build 0)  -->
<!DOCTYPE svg PUBLIC "-//W3C//DTD SVG 1.1//EN" "http://www.w3.org/Graphics/SVG/1.1/DTD/svg11.dtd">
<svg version="1.1" id="Layer_1" xmlns="http://www.w3.org/2000/svg" xmlns:xlink="http://www.w3.org/1999/xlink" x="0px" y="0px"
	 width="617.853px" height="157.877px" viewBox="17.463 19.67 617.853 157.877"
	 enable-background="new 17.463 19.67 617.853 157.877" xml:space="preserve">
<path fill-rule="evenodd" clip-rule="evenodd" fill="#31B22D" d="M53.422,175.969c-20.371,0.028-36.245-16.925-35.956-36.598
	c0.286-19.434,16.427-35.454,36.171-35.414c19.939,0.041,36.023,16.287,35.862,36.423C89.339,160.504,72.789,176.11,53.422,175.969z
	"/>
<path fill-rule="evenodd" clip-rule="evenodd" fill="#1A1819" d="M152.736,146.343c7.523,0,15.001,0,22.473,0
	c0.483,2.867-2.715,11.116-6.24,15.921c-5.883,8.02-13.71,13.049-23.522,14.746c-20.565,3.558-39.47-10.496-42.563-30.438
	c-3.287-21.2,11.521-39.272,30.769-42.069c22.24-3.231,38.382,12.824,41.309,28.447c-0.445,0-0.873,0-1.299,0
	c-7.006,0-14.012-0.015-21.018,0.02c-0.854,0.004-1.369-0.265-1.904-0.933c-3.918-4.889-9.045-6.797-15.089-5.292
	c-5.986,1.491-9.723,5.547-10.797,11.631c-1.52,8.613,4.625,15.538,11.884,16.801c6.043,1.052,12.619-2.033,15.518-7.973
	C152.401,146.906,152.578,146.624,152.736,146.343z"/>
<path fill-rule="evenodd" clip-rule="evenodd" fill="#1A1819" d="M236.805,159.816c0,4.83,0,9.509,0,14.277
	c-16.989,0-33.951,0-51.004,0c0-22.479,0-44.961,0-67.533c16.814,0,33.636,0,50.565,0c0,4.686,0,9.401,0,14.246
	c-8.926,0-17.831,0-26.816,0c0,3.991,0,7.853,0,11.848c8.191,0,16.323,0,24.537,0c0,4.815,0,9.499,0,14.319
	c-8.122,0-16.258,0-24.355,0c-0.314,1.116-0.391,10.814-0.117,12.844C218.635,159.816,227.677,159.816,236.805,159.816z"/>
<path fill-rule="evenodd" clip-rule="evenodd" fill="#31B22D" d="M174.415,55.681c0.007,19.916-16.142,36.042-36.133,36.015
	c-19.501-0.027-35.976-15.639-35.916-36.061c0.063-21.366,17.674-35.988,36.031-35.965
	C157.139,19.694,174.292,34.757,174.415,55.681z M159.058,55.806c0.045-11.47-9.127-20.749-20.565-20.803
	c-11.452-0.054-20.734,9.123-20.808,20.572c-0.074,11.465,9.275,20.865,20.722,20.834C149.776,76.379,159.014,67.163,159.058,55.806
	z"/>
<path fill-rule="evenodd" clip-rule="evenodd" fill="#1A1819" d="M299.185,157.181c0,5.742,0,11.253,0,16.757
	c-1.095,0.322-46.151,0.469-50.258,0.164c0-22.466,0-44.94,0-67.426c0.965-0.263,22.006-0.324,23.725-0.033
	c0,16.787,0,33.599,0,50.538C281.546,157.181,290.302,157.181,299.185,157.181z"/>
<path fill-rule="evenodd" clip-rule="evenodd" fill="#1A1819" d="M330.428,157.198c9.007,0,17.766,0,26.598,0
	c0,5.664,0,11.209,0,16.759c-1.049,0.296-46.527,0.434-50.214,0.14c0-22.465,0-44.939,0-67.521c7.805,0,15.644,0,23.616,0
	C330.428,123.363,330.428,140.18,330.428,157.198z"/>
<path fill-rule="evenodd" clip-rule="evenodd" fill="#1C1A1B" d="M573.746,106.23c1.534,0,2.967,0.032,4.397-0.013
	c0.718-0.023,0.996,0.491,1.36,0.91c4.502,5.18,8.996,10.367,13.494,15.55c11.732,13.52,23.465,27.04,35.2,40.558
	c0.302,0.348,0.628,0.675,0.91,0.977c0.146-0.053,0.198-0.061,0.233-0.089c0.032-0.025,0.058-0.072,0.065-0.113
	c0.025-0.141,0.06-0.283,0.06-0.424c0.021-19.052,0.038-38.104,0.058-57.157c0-0.043,0.037-0.087,0.087-0.2c1.861,0,3.752,0,5.707,0
	c0,22.747,0,45.426,0,68.198c-1.501,0-2.976,0.067-4.438-0.042c-0.427-0.031-0.886-0.499-1.212-0.871
	c-3.481-3.968-6.939-7.957-10.403-11.94c-12.942-14.885-25.883-29.771-38.825-44.655c-0.157-0.181-0.324-0.354-0.482-0.527
	c-0.056,0.017-0.105,0.024-0.146,0.046c-0.036,0.02-0.073,0.049-0.092,0.084c-0.023,0.041-0.035,0.091-0.038,0.138
	c-0.009,0.143-0.017,0.287-0.017,0.431c-0.003,18.958-0.006,37.917-0.011,56.875c0,0.091-0.028,0.185-0.055,0.274
	c-0.013,0.043-0.053,0.079-0.127,0.186c-1.85,0-3.748,0-5.723,0C573.746,151.707,573.746,129.029,573.746,106.23z"/>
<path fill-rule="evenodd" clip-rule="evenodd" fill="#1C1A1B" d="M528.085,175.434c-12.129-0.295-22.249-4.804-29.466-14.749
	c-13.398-18.463-5.976-46.599,18.812-53.854c12.362-3.619,24.063-1.592,34.191,6.589c9.708,7.841,13.795,18.279,12.621,30.698
	c-1.373,14.513-12.144,26.821-27.296,30.324C534.036,175.114,531.087,175.431,528.085,175.434z M498.482,140.36
	c0.004,16.54,13.106,29.472,29.88,29.491c16.625,0.02,29.736-12.965,29.755-29.467c0.019-16.577-13.074-29.565-29.802-29.563
	C511.59,110.822,498.478,123.804,498.482,140.36z"/>
<path fill-rule="evenodd" clip-rule="evenodd" fill="#34B330" d="M17.649,55.797C17.81,35.264,34.324,19.878,53.357,19.81
	c20.018-0.072,36.107,15.906,36.306,35.654c0.192,19.036-15.132,36.213-35.973,36.292C33.877,91.831,17.69,75.629,17.649,55.797z
	 M53.864,25.369c-17.05-0.017-30.29,13.635-30.581,29.813C22.982,71.97,36.34,85.813,53.12,86.142
	c16.286,0.32,30.324-12.487,30.929-29.28C84.663,39.84,71.149,25.579,53.864,25.369z"/>
<path fill-rule="evenodd" clip-rule="evenodd" fill="#1E1B1C" d="M424.201,142.194c0,10.808,0,21.487,0,32.233c-2,0-3.895,0-5.868,0
	c0-22.729,0-45.4,0-68.181c0.382-0.03,0.746-0.084,1.11-0.084c5.806-0.006,11.611-0.019,17.417,0.001
	c4.012,0.013,7.939,0.569,11.667,2.122c8.519,3.548,10.911,11.19,10.126,18.001c-0.65,5.641-3.791,9.608-8.595,12.377
	c-1.156,0.666-2.381,1.212-3.688,1.871c0.32,0.265,0.586,0.499,0.866,0.714c1.806,1.391,3.282,3.101,4.574,4.952
	c2.167,3.105,4.277,6.252,6.358,9.417c3.819,5.809,7.6,11.644,11.396,17.468c0.255,0.391,0.505,0.784,0.877,1.363
	c-1.624,0-3.045-0.11-4.443,0.027c-1.882,0.184-2.979-0.519-3.987-2.167c-3.802-6.216-7.749-12.345-11.729-18.449
	c-1.542-2.365-3.245-4.635-5.006-6.844c-1.67-2.095-3.729-3.776-6.421-4.372c-1.44-0.319-2.938-0.477-4.414-0.512
	c-3.165-0.075-6.333-0.025-9.5-0.022C424.759,142.11,424.574,142.15,424.201,142.194z M424.269,136.947
	c0.395,0.02,0.673,0.046,0.951,0.046c3.645,0.002,7.292,0.069,10.935-0.028c1.859-0.05,3.733-0.279,5.56-0.636
	c2.615-0.511,5.002-1.58,7.065-3.345c4.917-4.207,5.529-14.909-2.11-19.17c-2.647-1.476-5.504-2.303-8.497-2.413
	c-4.455-0.164-8.917-0.114-13.376-0.146c-0.17-0.001-0.34,0.092-0.527,0.146C424.269,119.906,424.269,128.34,424.269,136.947z"/>
<path fill-rule="evenodd" clip-rule="evenodd" fill="#1F1D1E" d="M384.462,174.421c-2.124,0-4.021,0-6.05,0
	c0-21.064,0-42.055,0-63.168c-8.509,0-16.886,0-25.342,0c0-1.731,0-3.34,0-5.023c18.863,0,37.701,0,56.639,0
	c0,1.602,0,3.209,0,4.948c-8.35,0-16.727,0-25.247,0C384.462,132.295,384.462,153.283,384.462,174.421z"/>
<path fill-rule="evenodd" clip-rule="evenodd" fill="#1D1B1C" d="M477.907,106.227c2.009,0,3.907,0,5.873,0
	c0,22.736,0,45.403,0,68.266c-0.988,0-1.975,0-2.962,0c-0.948,0-1.896,0-2.91,0C477.907,151.694,477.907,129.028,477.907,106.227z"
	/>
<g>
	<g>
		<path fill-rule="evenodd" clip-rule="evenodd" fill="#FCFCFC" d="M-9.958-41.73c0-66.184,0-132.274,0-198.398
			c217.344,0,434.688,0,652.029,0c0,66.125,0,132.261,0,198.398C424.743-41.73,207.417-41.73-9.958-41.73z M43.176-63.531
			C62.542-63.39,79.092-78.996,79.253-99.12c0.161-20.136-15.923-36.382-35.862-36.423c-19.744-0.04-35.885,15.979-36.171,35.414
			C6.931-80.457,22.805-63.504,43.176-63.531z M142.489-93.157c-0.158,0.281-0.335,0.564-0.48,0.862
			c-2.898,5.94-9.475,9.025-15.518,7.973c-7.259-1.263-13.404-8.188-11.884-16.801c1.074-6.084,4.811-10.14,10.797-11.631
			c6.044-1.505,11.171,0.403,15.089,5.292c0.535,0.668,1.05,0.938,1.904,0.933c7.006-0.035,14.012-0.02,21.018-0.02
			c0.427,0,0.854,0,1.299,0c-2.926-15.623-19.068-31.679-41.309-28.447c-19.248,2.797-34.056,20.869-30.769,42.069
			C95.73-72.986,114.635-58.932,135.2-62.49c9.812-1.697,17.639-6.727,23.522-14.746c3.525-4.805,6.723-13.054,6.24-15.921
			C157.491-93.157,150.012-93.157,142.489-93.157z M226.559-79.684c-9.128,0-18.17,0-27.19,0
			c-0.274-2.029-0.198-11.728,0.117-12.844c8.097,0,16.233,0,24.355,0c0-4.82,0-9.503,0-14.319c-8.214,0-16.346,0-24.537,0
			c0-3.995,0-7.857,0-11.848c8.985,0,17.891,0,26.816,0c0-4.845,0-9.56,0-14.246c-16.929,0-33.75,0-50.565,0
			c0,22.572,0,45.055,0,67.533c17.053,0,34.015,0,51.004,0C226.559-70.175,226.559-74.855,226.559-79.684z M164.168-183.819
			c-0.123-20.924-17.276-35.987-36.018-36.011c-18.356-0.023-35.968,14.599-36.031,35.965c-0.06,20.421,16.415,36.034,35.916,36.061
			C148.026-147.777,164.176-163.904,164.168-183.819z M288.938-82.319c-8.883,0-17.639,0-26.533,0c0-16.939,0-33.75,0-50.538
			c-1.718-0.291-22.759-0.229-23.725,0.033c0,22.485,0,44.959,0,67.426c4.107,0.305,49.163,0.158,50.258-0.164
			C288.938-71.065,288.938-76.576,288.938-82.319z M320.182-82.302c0-17.018,0-33.835,0-50.621c-7.972,0-15.812,0-23.616,0
			c0,22.582,0,45.055,0,67.521c3.687,0.293,49.165,0.156,50.214-0.14c0-5.55,0-11.096,0-16.759
			C337.947-82.302,329.189-82.302,320.182-82.302z M563.5-133.27c0,22.798,0,45.477,0,68.196c1.975,0,3.873,0,5.723,0
			c0.075-0.106,0.114-0.142,0.127-0.186c0.027-0.089,0.055-0.183,0.055-0.274c0.005-18.958,0.008-37.917,0.011-56.875
			c0-0.144,0.007-0.288,0.017-0.431c0.003-0.047,0.015-0.097,0.038-0.138c0.02-0.035,0.056-0.064,0.092-0.084
			c0.042-0.022,0.09-0.029,0.146-0.046c0.159,0.173,0.325,0.346,0.482,0.527c12.942,14.885,25.883,29.77,38.825,44.655
			c3.463,3.984,6.921,7.973,10.403,11.94c0.326,0.372,0.785,0.84,1.212,0.871c1.462,0.108,2.937,0.042,4.438,0.042
			c0-22.772,0-45.452,0-68.198c-1.954,0-3.846,0-5.707,0c-0.05,0.112-0.087,0.156-0.087,0.2c-0.02,19.052-0.038,38.104-0.058,57.157
			c0,0.142-0.034,0.284-0.06,0.424c-0.007,0.041-0.033,0.087-0.065,0.113c-0.036,0.029-0.088,0.036-0.233,0.089
			c-0.282-0.302-0.608-0.629-0.91-0.977c-11.734-13.518-23.467-27.038-35.2-40.558c-4.498-5.183-8.992-10.37-13.494-15.55
			c-0.364-0.419-0.642-0.933-1.36-0.91C566.466-133.238,565.034-133.27,563.5-133.27z M517.838-64.066
			c3.002-0.003,5.951-0.32,8.862-0.993c15.152-3.502,25.924-15.811,27.296-30.324c1.174-12.419-2.914-22.857-12.621-30.698
			c-10.128-8.181-21.829-10.208-34.191-6.589c-24.788,7.256-32.21,35.391-18.812,53.854C495.59-68.87,505.709-64.362,517.838-64.066
			z M7.402-183.703c0.042,19.832,16.228,36.035,36.042,35.959c20.84-0.079,36.165-17.257,35.973-36.292
			c-0.199-19.748-16.289-35.726-36.306-35.654C24.078-219.622,7.563-204.236,7.402-183.703z M413.955-97.306
			c0.373-0.044,0.558-0.084,0.743-0.084c3.167-0.003,6.334-0.053,9.5,0.022c1.476,0.036,2.974,0.193,4.414,0.512
			c2.691,0.596,4.751,2.277,6.421,4.372c1.761,2.209,3.464,4.479,5.006,6.844c3.98,6.104,7.927,12.233,11.729,18.449
			c1.008,1.648,2.104,2.351,3.987,2.167c1.397-0.137,2.819-0.027,4.443-0.027c-0.373-0.579-0.623-0.973-0.877-1.363
			c-3.796-5.824-7.577-11.659-11.396-17.468c-2.081-3.165-4.191-6.311-6.358-9.417c-1.292-1.851-2.768-3.561-4.574-4.952
			c-0.28-0.215-0.546-0.449-0.866-0.714c1.307-0.658,2.531-1.205,3.688-1.871c4.805-2.769,7.945-6.737,8.595-12.377
			c0.785-6.811-1.607-14.454-10.126-18.001c-3.729-1.553-7.656-2.109-11.667-2.122c-5.805-0.02-11.611-0.007-17.417-0.001
			c-0.365,0-0.729,0.054-1.11,0.084c0,22.78,0,45.452,0,68.181c1.973,0,3.868,0,5.868,0
			C413.955-75.819,413.955-86.498,413.955-97.306z M374.215-65.079c0-21.138,0-42.126,0-63.244c8.52,0,16.896,0,25.247,0
			c0-1.739,0-3.346,0-4.948c-18.938,0-37.776,0-56.639,0c0,1.683,0,3.292,0,5.023c8.457,0,16.833,0,25.342,0
			c0,21.113,0,42.104,0,63.168C370.195-65.079,372.091-65.079,374.215-65.079z M467.66-133.273c0,22.8,0,45.467,0,68.266
			c1.014,0,1.962,0,2.91,0c0.987,0,1.974,0,2.962,0c0-22.863,0-45.53,0-68.266C471.567-133.273,469.669-133.273,467.66-133.273z"/>
		<path fill-rule="evenodd" clip-rule="evenodd" fill="#FBFCFB" d="M148.812-183.694c-0.044,11.357-9.282,20.573-20.651,20.604
			c-11.447,0.031-20.796-9.369-20.722-20.834c0.074-11.449,9.356-20.626,20.808-20.572
			C139.684-204.443,148.856-195.164,148.812-183.694z"/>
		<path fill-rule="evenodd" clip-rule="evenodd" fill="#FBFBFB" d="M488.236-99.14c-0.004-16.555,13.107-29.538,29.833-29.539
			c16.728-0.001,29.821,12.987,29.802,29.563c-0.019,16.502-13.13,29.486-29.755,29.467C501.342-69.669,488.24-82.6,488.236-99.14z"
			/>
		<path fill-rule="evenodd" clip-rule="evenodd" fill="#FBFCFB" d="M43.618-214.131c17.285,0.21,30.798,14.471,30.185,31.493
			c-0.605,16.793-14.643,29.601-30.929,29.28c-16.78-0.33-30.138-14.172-29.836-30.96C13.328-200.496,26.567-214.148,43.618-214.131
			z"/>
	</g>
	<path fill-rule="evenodd" clip-rule="evenodd" fill="#FBFBFB" d="M414.022-102.553c0-8.607,0-17.041,0-25.545
		c0.187-0.054,0.357-0.147,0.527-0.146c4.459,0.032,8.921-0.018,13.376,0.146c2.993,0.11,5.85,0.937,8.497,2.413
		c7.639,4.261,7.027,14.963,2.11,19.17c-2.063,1.765-4.45,2.834-7.065,3.345c-1.827,0.356-3.701,0.586-5.56,0.636
		c-3.643,0.098-7.29,0.03-10.935,0.028C414.695-102.507,414.417-102.533,414.022-102.553z"/>
</g>
</svg>
