<?xml version="1.0" standalone="no"?>
<!DOCTYPE svg PUBLIC "-//W3C//DTD SVG 20010904//EN"
 "http://www.w3.org/TR/2001/REC-SVG-20010904/DTD/svg10.dtd">
<svg version="1.0" xmlns="http://www.w3.org/2000/svg"
 width="700.000000pt" height="700.000000pt" viewBox="0 0 700.000000 700.000000"
 preserveAspectRatio="xMidYMid meet">
<metadata>
Created by potrace 1.14, written by Peter Selinger 2001-2017
</metadata>
<g transform="translate(0.000000,700.000000) scale(0.100000,-0.100000)"
fill="#000000" stroke="none">
<path d="M3278 6996 c-1 -2 -42 -6 -89 -10 -47 -4 -95 -8 -105 -10 -10 -2 -45
-7 -78 -11 -67 -8 -105 -14 -126 -20 -8 -3 -32 -7 -54 -11 -55 -8 -62 -10
-156 -34 -47 -12 -95 -24 -107 -26 -39 -7 -261 -84 -367 -126 -111 -44 -353
-161 -431 -208 -27 -17 -58 -33 -67 -36 -10 -4 -18 -10 -18 -15 0 -5 -5 -9
-10 -9 -9 0 -106 -64 -244 -160 -11 -8 -55 -41 -96 -74 -543 -431 -946 -1010
-1160 -1666 -28 -87 -75 -256 -85 -311 -3 -13 -11 -58 -20 -99 -29 -147 -35
-194 -52 -370 -15 -163 -8 -592 12 -711 2 -13 6 -46 9 -74 46 -406 231 -932
458 -1303 35 -57 68 -111 73 -121 25 -42 130 -186 202 -277 201 -251 445 -481
722 -678 67 -47 123 -86 126 -86 3 0 35 -19 72 -43 272 -174 705 -348 1048
-423 72 -16 211 -41 274 -50 25 -3 57 -8 71 -10 163 -25 682 -25 842 1 13 2
46 7 73 10 74 11 87 13 120 19 17 4 46 9 65 12 141 23 400 99 580 169 820 319
1479 919 1872 1705 122 244 235 560 284 795 16 79 54 301 59 350 4 33 9 71 11
85 9 46 11 524 4 605 -12 128 -21 202 -25 227 -3 13 -8 43 -11 68 -3 25 -9 61
-14 80 -5 19 -12 51 -15 70 -9 53 -62 261 -75 295 -7 17 -14 40 -16 52 -6 32
-91 254 -135 356 -255 580 -705 1116 -1240 1478 -70 47 -69 47 -174 110 -344
209 -853 394 -1225 444 -19 3 -46 7 -60 10 -13 2 -52 7 -86 11 -33 3 -74 8
-90 10 -32 5 -540 14 -546 10z m507 -709 c17 -3 55 -8 85 -11 328 -41 748
-182 1000 -335 19 -11 42 -24 50 -28 67 -31 267 -175 395 -282 96 -81 270
-257 329 -331 l35 -45 -1089 -3 c-600 -1 -1581 -1 -2182 0 l-1092 3 72 81
c261 297 557 522 907 690 245 117 534 207 765 239 25 3 52 8 60 10 8 2 51 7
95 10 44 4 81 8 83 10 5 5 451 -3 487 -8z m-635 -2262 l0 -525 -1226 0 -1226
0 6 133 c4 72 9 143 11 157 1 14 6 50 10 80 5 45 26 152 61 320 10 47 56 195
87 278 l31 82 1123 0 1123 0 0 -525z m2968 468 c68 -188 119 -376 137 -500 3
-21 8 -43 10 -50 2 -6 7 -38 10 -70 4 -32 10 -87 15 -123 7 -64 5 -471 -3
-540 -36 -288 -73 -436 -200 -785 -5 -16 -41 -91 -78 -165 -170 -339 -387
-621 -671 -871 l-83 -73 -3 1092 -2 1092 -700 0 -700 0 0 525 0 525 1124 0
1123 0 21 -57z m-1568 -2641 l0 -948 -97 -36 c-178 -66 -415 -123 -588 -143
-173 -20 -230 -23 -410 -20 -110 2 -218 6 -240 9 -22 3 -60 8 -85 11 -91 12
-141 21 -274 50 -247 55 -561 183 -796 325 -576 348 -1004 880 -1215 1513 -30
91 -55 170 -55 176 0 8 541 11 1880 11 l1880 0 0 -948z"/>
</g>
</svg>
