<?xml version="1.0" encoding="utf-8"?>
<!-- Generator: Adobe Illustrator 23.0.0, SVG Export Plug-In . SVG Version: 6.00 Build 0)  -->
<svg version="1.1" id="레이어_1" xmlns="http://www.w3.org/2000/svg" xmlns:xlink="http://www.w3.org/1999/xlink" x="0px"
	 y="0px" viewBox="0 0 143.24 42.52" style="enable-background:new 0 0 143.24 42.52;" xml:space="preserve">
<style type="text/css">
	.st0{fill:#C0DDC1;}
</style>
<g>
	<path class="st0" d="M21.26,0C9.52,0,0,9.52,0,21.26s9.52,21.26,21.26,21.26C33,42.52,42.52,33,42.52,21.26S33,0,21.26,0z
		 M4.25,21.26c0-9.39,7.62-17.01,17.01-17.01c2.26,0,4.41,0.44,6.38,1.24v31.54c-1.97,0.8-4.12,1.24-6.38,1.24
		C11.87,38.27,4.25,30.65,4.25,21.26z M31.89,34.53V7.99c3.89,3.12,6.38,7.9,6.38,13.27S35.78,31.42,31.89,34.53z"/>
	<path class="st0" d="M121.9,0c-11.74,0-21.26,9.52-21.26,21.26s9.52,21.26,21.26,21.26c11.74,0,21.26-9.52,21.26-21.26
		S133.64,0,121.9,0z M121.9,4.25c5.37,0,10.16,2.49,13.27,6.38h-26.55C111.74,6.74,116.53,4.25,121.9,4.25z M104.89,21.26
		c0-2.26,0.44-4.41,1.24-6.38h13.64v6.38H104.89z M105.43,25.51h22.85v11.52c-1.97,0.8-4.12,1.24-6.38,1.24
		C113.97,38.27,107.32,32.85,105.43,25.51z M132.53,34.53V21.26h-2.13h-2.13h-4.25v-6.38h13.64c0.8,1.97,1.24,4.12,1.24,6.38
		C138.91,26.63,136.42,31.42,132.53,34.53z"/>
	<path class="st0" d="M92.84,14.88v-4.25H77.96V4.25h6.38h8.5V0H71.58C59.84,0,50.32,9.52,50.32,21.26s9.52,21.26,21.26,21.26h21.26
		v-4.25h-7.5c2.02-2.26,3.25-5.24,3.25-8.5c0-7.05-5.71-12.76-12.76-12.76s-12.76,5.71-12.76,12.76c0,2.73,0.86,5.27,2.33,7.34
		c-6.34-2.47-10.83-8.63-10.83-15.85c0-2.26,0.44-4.41,1.24-6.38H92.84z M75.83,21.26c4.7,0,8.5,3.81,8.5,8.5
		c0,4.7-3.81,8.5-8.5,8.5c-4.7,0-8.5-3.81-8.5-8.5C67.33,25.07,71.14,21.26,75.83,21.26z M71.58,4.25h2.13v6.38h-15.4
		C61.42,6.74,66.21,4.25,71.58,4.25z"/>
</g>
</svg>
